<svg width="1229" height="119" viewBox="0 0 1229 119" fill="none" xmlns="http://www.w3.org/2000/svg">
<rect x="15.9081" y="-15.5327" width="1207.61" height="132.923" rx="19" transform="rotate(-2.2487 15.9081 -15.5327)" fill="#F8845B" stroke="#181818" stroke-width="2"/>
<path d="M1 -3.00003C1 -8.61706 1.00078 -12.7697 1.26916 -16.0546C1.53659 -19.3278 2.06474 -21.6512 3.07088 -23.6258C4.89247 -27.2009 7.7991 -30.1076 11.3742 -31.9292C13.3488 -32.9353 15.6723 -33.4634 18.9455 -33.7309C22.2303 -33.9993 26.383 -34 32 -34H1171.6C1178.34 -34 1183.33 -33.9993 1187.28 -33.6764C1191.22 -33.3544 1194.04 -32.7173 1196.44 -31.4932C1200.77 -29.2881 1204.29 -25.7695 1206.49 -21.4418C1207.72 -19.0393 1208.35 -16.222 1208.68 -12.2818C1209 -8.32987 1209 -3.33716 1209 3.39997V66C1209 71.617 1209 75.7696 1208.73 79.0545C1208.46 82.3277 1207.94 84.6511 1206.93 86.6258C1205.11 90.2009 1202.2 93.1075 1198.63 94.9291C1196.65 95.9352 1194.33 96.4634 1191.05 96.7308C1187.77 96.9992 1183.62 97 1178 97H32C26.383 97 22.2303 96.9992 18.9455 96.7308C15.6723 96.4634 13.3488 95.9352 11.3742 94.9291C7.7991 93.1075 4.89247 90.2009 3.07088 86.6258C2.06474 84.6511 1.53659 82.3277 1.26916 79.0545C1.00078 75.7696 1 71.617 1 66V-3.00003Z" fill="white" stroke="#181818" stroke-width="2"/>
</svg>
