<svg width="125" height="55" viewBox="0 0 125 55" fill="none" xmlns="http://www.w3.org/2000/svg">
<path d="M58.872 30.312C62.544 30.312 65.232 28.056 65.232 24.432V13.2H62.472V24.264C62.472 26.232 61.344 27.624 58.872 27.624C56.4 27.624 55.272 26.232 55.272 24.264V13.2H52.512V24.432C52.512 28.056 55.176 30.312 58.872 30.312ZM78.4866 13.2V24.6L70.5666 13.2H68.4066V30H71.1666V18.6L79.0866 30H81.2466V13.2H78.4866ZM84.6019 13.2V30H87.3619V13.2H84.6019ZM98.8311 30.264C103.679 30.264 107.495 26.4 107.495 21.6C107.495 16.8 103.679 12.936 98.8311 12.936C93.9831 12.936 90.1671 16.8 90.1671 21.6C90.1671 26.4 93.9831 30.264 98.8311 30.264ZM98.8311 29.04C94.6791 29.04 91.4391 25.728 91.4391 21.6C91.4391 17.472 94.6791 14.16 98.8311 14.16C102.983 14.16 106.223 17.472 106.223 21.6C106.223 25.728 102.983 29.04 98.8311 29.04ZM120.393 13.2V24.6L112.473 13.2H110.313V30H113.073V18.6L120.993 30H123.153V13.2H120.393Z" fill="#181818"/>
<path d="M58.36 39.6V43.284H53.8V39.6H52.96V48H53.8V44.076H58.36V48H59.2V39.6H58.36ZM67.5123 48.144C69.2643 48.144 70.6683 46.776 70.6683 45C70.6683 43.224 69.2643 41.856 67.5123 41.856C65.7603 41.856 64.3563 43.224 64.3563 45C64.3563 46.776 65.7603 48.144 67.5123 48.144ZM67.5123 47.376C66.1803 47.376 65.1483 46.332 65.1483 45C65.1483 43.668 66.1803 42.624 67.5123 42.624C68.8443 42.624 69.8763 43.668 69.8763 45C69.8763 46.332 68.8443 47.376 67.5123 47.376ZM76.2204 43.572C76.2204 42.924 76.8564 42.624 77.4804 42.624C78.0564 42.624 78.6684 42.852 78.9204 43.464L79.5804 43.08C79.2324 42.336 78.4644 41.856 77.4804 41.856C76.2804 41.856 75.4284 42.612 75.4284 43.572C75.4284 45.78 78.9324 44.928 78.9324 46.416C78.9324 47.124 78.2604 47.376 77.5524 47.376C76.7484 47.376 76.1244 46.98 75.9084 46.368L75.2364 46.764C75.5364 47.532 76.3524 48.144 77.5524 48.144C78.8364 48.144 79.7244 47.436 79.7244 46.416C79.7244 44.208 76.2204 45.06 76.2204 43.572ZM87.9816 41.856C86.9136 41.856 86.0616 42.372 85.5576 43.176V42H84.7656V50.4H85.5576V46.824C86.0616 47.628 86.9136 48.144 87.9816 48.144C89.6736 48.144 91.0776 46.776 91.0776 45C91.0776 43.224 89.6736 41.856 87.9816 41.856ZM87.9216 47.376C86.5896 47.376 85.5576 46.332 85.5576 45C85.5576 43.668 86.5896 42.624 87.9216 42.624C89.2536 42.624 90.2856 43.668 90.2856 45C90.2856 46.332 89.2536 47.376 87.9216 47.376ZM96.5105 40.728C96.8345 40.728 97.0865 40.464 97.0865 40.152C97.0865 39.84 96.8345 39.576 96.5105 39.576C96.1865 39.576 95.9345 39.84 95.9345 40.152C95.9345 40.464 96.1865 40.728 96.5105 40.728ZM96.1145 48H96.9065V42H96.1145V48ZM105.487 42.768V42H103.759V40.32L102.967 40.56V42H101.707V42.768H102.967V46.404C102.967 47.844 103.867 48.24 105.487 48V47.304C104.323 47.352 103.759 47.436 103.759 46.404V42.768H105.487ZM115.324 42V43.176C114.82 42.372 113.968 41.856 112.9 41.856C111.208 41.856 109.804 43.224 109.804 45C109.804 46.776 111.208 48.144 112.9 48.144C113.968 48.144 114.82 47.628 115.324 46.824V48H116.116V42H115.324ZM112.96 47.376C111.628 47.376 110.596 46.332 110.596 45C110.596 43.668 111.628 42.624 112.96 42.624C114.292 42.624 115.324 43.668 115.324 45C115.324 46.332 114.292 47.376 112.96 47.376ZM121.513 48H122.305V39.24H121.513V48Z" fill="#181818"/>
<path d="M102.75 21.25H99.75V18.25C99.75 18.0511 99.671 17.8603 99.5303 17.7197C99.3897 17.579 99.1989 17.5 99 17.5C98.8011 17.5 98.6103 17.579 98.4697 17.7197C98.329 17.8603 98.25 18.0511 98.25 18.25V21.25H95.25C95.0511 21.25 94.8603 21.329 94.7197 21.4697C94.579 21.6103 94.5 21.8011 94.5 22C94.5 22.1989 94.579 22.3897 94.7197 22.5303C94.8603 22.671 95.0511 22.75 95.25 22.75H98.25V25.75C98.25 25.9489 98.329 26.1397 98.4697 26.2803C98.6103 26.421 98.8011 26.5 99 26.5C99.1989 26.5 99.3897 26.421 99.5303 26.2803C99.671 26.1397 99.75 25.9489 99.75 25.75V22.75H102.75C102.949 22.75 103.14 22.671 103.28 22.5303C103.421 22.3897 103.5 22.1989 103.5 22C103.5 21.8011 103.421 21.6103 103.28 21.4697C103.14 21.329 102.949 21.25 102.75 21.25Z" fill="#8ED6DE"/>
<g clip-path="url(#clip0_2_318)">
<path d="M23.903 26.3562C23.7617 26.3421 23.6309 26.335 23.5072 26.335C22.5178 26.335 22.0442 26.7626 21.5 27.4094C20.9558 26.7591 20.4822 26.335 19.4928 26.335C19.3691 26.335 19.2348 26.3421 19.097 26.3562C18.2418 26.4375 17.2488 27.2256 17.1286 28.7241V29.2259C17.2417 30.6643 18.3266 32.4385 21.5 34.665C24.6734 32.4385 25.7583 30.6679 25.8714 29.2259V28.7241C25.7512 27.2256 24.7582 26.441 23.903 26.3562Z" fill="#F8845B"/>
<path d="M37.7805 20.751H31.2499V14.2199C31.2499 11.3396 28.9105 9 26.0304 9H16.9696C14.093 9 11.7501 11.3396 11.7501 14.2199V20.751H5.21951C2.33941 20.751 0 23.0942 0 25.971V35.029C0 37.9093 2.33941 40.2525 5.21951 40.2525H11.7536V46.7801C11.7536 49.6604 14.093 52 16.9731 52H26.0339C28.9105 52 31.2534 49.6569 31.2534 46.7801V40.2525H37.784C40.6606 40.2525 43.0035 37.9093 43.0035 35.029V25.971C43 23.0942 40.657 20.751 37.7805 20.751ZM40.4379 35.029C40.4379 36.4922 39.247 37.6867 37.7805 37.6867H31.2499V34.1066C31.9213 33.679 32.3701 32.9333 32.3701 32.078C32.3701 30.7492 31.2923 29.6748 29.9671 29.6748C28.6419 29.6748 27.5641 30.7492 27.5641 32.078C27.5641 32.9333 28.0129 33.679 28.6879 34.1066V37.6902V38.9696V46.7801C28.6879 48.2432 27.497 49.4377 26.0304 49.4377H16.9696C15.5066 49.4377 14.3157 48.2432 14.3157 46.7801V40.2525H17.899C18.3266 40.924 19.0687 41.3728 19.9239 41.3728C21.2526 41.3728 22.3269 40.2949 22.3269 38.9696C22.3269 37.6408 21.2491 36.5664 19.9239 36.5664C19.0687 36.5664 18.3231 37.0152 17.899 37.6902H14.3157H13.0329H5.21951C3.75296 37.6902 2.56558 36.4957 2.56558 35.0325V25.971C2.56558 24.5078 3.75649 23.3168 5.21951 23.3168H11.7536V26.8969C11.0822 27.3246 10.6334 28.0703 10.6334 28.9255C10.6334 30.2508 11.7112 31.3288 13.0364 31.3288C14.3651 31.3288 15.4394 30.2508 15.4394 28.9255C15.4394 28.0703 14.9906 27.3246 14.3192 26.8969V23.3168V22.0339V14.2199C14.3192 12.7533 15.5101 11.5623 16.9731 11.5623H26.0339C27.5005 11.5623 28.6914 12.7533 28.6914 14.2199V20.751H25.1045C24.6769 20.0796 23.9313 19.6272 23.0761 19.6272C21.7474 19.6272 20.6731 20.7051 20.6731 22.0339C20.6731 23.3593 21.7509 24.4372 23.0761 24.4372C23.9313 24.4372 24.6769 23.9883 25.1045 23.3168H28.6879H29.9707H37.784C39.2506 23.3168 40.4415 24.5078 40.4415 25.971V35.029H40.4379Z" fill="#F8845B"/>
</g>
<defs>
<clipPath id="clip0_2_318">
<rect width="43" height="43" fill="white" transform="translate(0 9)"/>
</clipPath>
</defs>
</svg>
